<?xml version="1.0" encoding="utf-8"?>
<!-- Generator: Adobe Illustrator 16.0.0, SVG Export Plug-In . SVG Version: 6.00 Build 0)  -->
<!DOCTYPE svg PUBLIC "-//W3C//DTD SVG 1.1//EN" "http://www.w3.org/Graphics/SVG/1.1/DTD/svg11.dtd">
<svg xmlns="http://www.w3.org/2000/svg" xmlns:xlink="http://www.w3.org/1999/xlink" version="1.1" id="Layer_1" x="0px" y="0px" width="1251.346px" height="143.776px" viewBox="0 0 1251.346 143.776" xml:space="preserve">
<path fill="#FFFFFF" d="M63.183,3.453H22.229c-2.812,0-5.186,2.029-5.623,4.809L0.044,113.293c-0.333,2.062,1.271,3.934,3.374,3.934  h19.551c2.8,0,5.184-2.019,5.621-4.81l4.477-28.335c0.427-2.75,2.823-4.791,5.62-4.791h12.964c26.971,0,42.544-13.074,46.616-38.934  C100.1,29.03,98.34,20.15,93.031,13.915C87.222,7.063,76.893,3.453,63.183,3.453z M67.911,41.816  c-2.238,14.699-13.473,14.699-24.332,14.699h-6.172l4.331-27.444c0.259-1.663,1.698-2.884,3.372-2.884h2.843  c7.38,0,14.368,0,17.969,4.216C68.076,32.926,68.732,36.649,67.911,41.816z"/>
<path fill="#FFFFFF" d="M185.621,41.336h-19.614c-1.676,0-3.113,1.228-3.373,2.894l-0.875,5.476l-1.375-1.979  c-4.237-6.185-13.699-8.244-23.152-8.244c-21.673,0-40.184,16.428-43.795,39.457c-1.877,11.491,0.801,22.465,7.319,30.125  c5.976,7.039,14.521,9.993,24.693,9.993c17.468,0,27.149-11.24,27.149-11.24l-0.865,5.453c-0.341,2.084,1.272,3.956,3.354,3.956  h17.666c2.81,0,5.183-2.06,5.63-4.831l10.589-67.126C189.326,43.21,187.721,41.336,185.621,41.336z M158.284,79.52  c-1.887,11.204-10.797,18.722-22.124,18.722c-5.704,0-10.254-1.813-13.168-5.29c-2.904-3.438-4.007-8.33-3.082-13.783  c1.77-11.098,10.808-18.863,21.987-18.863c5.559,0,10.078,1.852,13.076,5.33C157.948,69.175,159.148,74.087,158.284,79.52z"/>
<path fill="#FFFFFF" d="M290.067,41.336h-19.695c-1.875,0-3.655,0.938-4.718,2.521l-27.179,40.017L226.95,45.397  c-0.728-2.396-2.945-4.062-5.455-4.062H202.13c-2.373,0-3.987,2.312-3.234,4.519l21.704,63.713l-20.404,28.812  c-1.625,2.294,0.01,5.396,2.769,5.396h19.698c1.872,0,3.611-0.916,4.674-2.457L292.88,46.71  C294.441,44.437,292.859,41.336,290.067,41.336z"/>
<path fill="#FFFFFF" d="M355.341,3.453h-40.953c-2.812,0-5.208,2.029-5.622,4.809l-16.573,105.031  c-0.335,2.062,1.269,3.934,3.373,3.934h21.03c1.912,0,3.601-1.414,3.911-3.351l4.708-29.794c0.414-2.75,2.81-4.791,5.622-4.791  h12.949c26.984,0,42.537-13.074,46.639-38.934c1.831-11.327,0.041-20.207-5.247-26.442C379.368,7.063,369.042,3.453,355.341,3.453z   M360.068,41.816c-2.25,14.699-13.45,14.699-24.318,14.699h-6.205l4.374-27.444c0.249-1.663,1.663-2.884,3.372-2.884h2.83  c7.373,0,14.365,0,17.969,4.216C360.234,32.926,360.9,36.649,360.068,41.816z"/>
<path fill="#FFFFFF" d="M477.746,41.336h-19.571c-1.686,0-3.123,1.228-3.372,2.894l-0.875,5.476l-1.374-1.979  c-4.247-6.185-13.701-8.244-23.154-8.244c-21.674,0-40.182,16.428-43.786,39.457c-1.854,11.491,0.771,22.465,7.306,30.125  c5.976,7.039,14.536,9.993,24.695,9.993c17.468,0,27.152-11.24,27.152-11.24l-0.875,5.453c-0.336,2.084,1.292,3.956,3.372,3.956  h17.656c2.79,0,5.165-2.06,5.622-4.831l10.597-67.126C481.454,43.21,479.872,41.336,477.746,41.336z M450.429,79.52  c-1.872,11.204-10.783,18.722-22.109,18.722c-5.706,0-10.287-1.813-13.203-5.29c-2.874-3.438-3.975-8.33-3.079-13.783  c1.79-11.098,10.825-18.863,21.986-18.863c5.58,0,10.098,1.852,13.074,5.33C450.098,69.175,451.304,74.087,450.429,79.52z"/>
<path fill="#FFFFFF" d="M500.901,6.336l-16.823,106.957c-0.336,2.062,1.289,3.934,3.372,3.934h16.906  c2.793,0,5.161-2.019,5.622-4.81L526.551,7.399c0.333-2.085-1.292-3.946-3.372-3.946h-18.904  C502.585,3.453,501.152,4.679,500.901,6.336z"/>
<g id="g10" transform="matrix(1.25,0,0,-1.25,-74.19125,149.0417)">
	<g>
		<g id="g4163_9_" transform="matrix(0.6384875,0,0,0.6384875,24.348951,24.07854)">
			<g id="g12_9_" transform="translate(143.448,67.609)">
				<path id="path14_9_" fill="#2B3894" d="M823.187-64.553l23.018,142.481h36.789L859.978-64.553H823.187"/>
			</g>
			<g id="g16_9_" transform="translate(224.353,133.66)">
				<path id="path18_9_" fill="#2B3894" d="M912.519,8.38c-7.274,2.858-18.714,5.978-32.967,5.978      c-36.373,0-61.975-19.332-62.188-47.024c-0.232-20.476,18.271-31.897,32.22-38.71c14.336-6.977,19.154-11.441,19.095-17.682      c-0.103-9.543-11.443-13.914-22.02-13.914c-14.73,0-22.556,2.151-34.653,7.472l-4.734,2.271l-5.144-31.897      c8.577-3.969,24.482-7.415,40.988-7.592c38.656,0,63.771,19.102,64.067,48.664c0.133,16.241-9.669,28.555-30.903,38.718      c-12.858,6.605-20.747,10.982-20.657,17.669c0.01,5.921,6.666,12.26,21.073,12.26c12.035,0.193,20.751-2.576,27.536-5.472      l3.301-1.63L912.519,8.38"/>
			</g>
			<g id="g20_9_" transform="translate(247.634,91.616)">
				<path id="path22_9_" fill="#2B3894" d="M938.227-38.043c3.052,8.187,14.659,39.821,14.659,39.821      c-0.218-0.373,3.03,8.254,4.887,13.598l2.484-12.285c0,0,7.06-34.011,8.515-41.134      C963.042-38.043,945.415-38.043,938.227-38.043z M983.616,53.775h-28.434c-8.817,0-15.416-2.522-19.278-11.811L881.267-88.611      h38.639c0,0,6.308,17.563,7.738,21.423c4.213,0,41.762-0.075,47.122-0.075c1.101-4.971,4.481-21.348,4.481-21.348h34.146      L983.616,53.775"/>
			</g>
			<g id="g24_9_" transform="translate(128.78,135.265)">
				<path id="path26_9_" fill="#2B3894" d="M806.994,10.153l-36.01-97.137l-3.857,19.746c-6.71,22.75-27.597,47.408-50.963,59.764      l32.943-124.61l38.936,0.026l57.936,142.211H806.994"/>
			</g>
			<g id="g28_9_" transform="translate(95.781,135.311)">
				<path id="path30_9_" fill="#F79510" d="M770.556,10.205h-59.328l-0.489-2.953c46.167-11.803,76.709-40.292,89.387-74.536      L787.235-1.815C785.012,7.213,778.545,9.888,770.556,10.205"/>
			</g>
		</g>
	</g>
	<g>
		<g id="g4163_8_" transform="matrix(0.6384875,0,0,0.6384875,24.348951,24.07854)">
			<g id="g12_8_" transform="translate(143.448,67.609)">
				<path id="path14_8_" fill="#FFFFFF" d="M823.187-64.553l23.018,142.481h36.789L859.978-64.553H823.187"/>
			</g>
			<g id="g16_8_" transform="translate(224.353,133.66)">
				<path id="path18_8_" fill="#FFFFFF" d="M912.519,8.38c-7.274,2.858-18.714,5.978-32.967,5.978      c-36.373,0-61.975-19.332-62.188-47.024c-0.232-20.476,18.271-31.897,32.22-38.71c14.336-6.977,19.154-11.441,19.095-17.682      c-0.103-9.543-11.443-13.914-22.02-13.914c-14.73,0-22.556,2.151-34.653,7.472l-4.734,2.271l-5.144-31.897      c8.577-3.969,24.482-7.415,40.988-7.592c38.656,0,63.771,19.102,64.067,48.664c0.133,16.241-9.669,28.555-30.903,38.718      c-12.858,6.605-20.747,10.982-20.657,17.669c0.01,5.921,6.666,12.26,21.073,12.26c12.035,0.193,20.751-2.576,27.536-5.472      l3.301-1.63L912.519,8.38"/>
			</g>
			<g id="g20_8_" transform="translate(247.634,91.616)">
				<path id="path22_8_" fill="#FFFFFF" d="M938.227-38.043c3.052,8.187,14.659,39.821,14.659,39.821      c-0.218-0.373,3.03,8.254,4.887,13.598l2.484-12.285c0,0,7.06-34.011,8.515-41.134      C963.042-38.043,945.415-38.043,938.227-38.043z M983.616,53.775h-28.434c-8.817,0-15.416-2.522-19.278-11.811L881.267-88.611      h38.639c0,0,6.308,17.563,7.738,21.423c4.213,0,41.762-0.075,47.122-0.075c1.101-4.971,4.481-21.348,4.481-21.348h34.146      L983.616,53.775"/>
			</g>
			<g id="g24_8_" transform="translate(128.78,135.265)">
				<path id="path26_8_" fill="#FFFFFF" d="M806.994,10.153l-36.01-97.137l-3.857,19.746c-6.71,22.75-27.597,47.408-50.963,59.764      l32.943-124.61l38.936,0.026l57.936,142.211H806.994"/>
			</g>
			<g id="g28_8_" transform="translate(95.781,135.311)">
				<path id="path30_8_" fill="#FFFFFF" d="M770.556,10.205h-59.328l-0.489-2.953c46.167-11.803,76.709-40.292,89.387-74.536      L787.235-1.815C785.012,7.214,778.545,9.888,770.556,10.205"/>
			</g>
		</g>
	</g>
</g>
<g id="layer1">
	<g id="g10305">
		<path id="path2268" fill="#FFFFFF" d="M1251.346,59.6c0.01,32.909-26.661,59.593-59.57,59.602    c-32.909,0.008-59.593-26.662-59.601-59.57c0-0.011,0-0.021,0-0.031c-0.009-32.907,26.662-59.592,59.569-59.601    c32.91-0.009,59.593,26.662,59.602,59.571C1251.346,59.581,1251.346,59.591,1251.346,59.6z"/>
		<path id="path1350" fill="#FFFFFF" d="M1111.449,0.016c-32.715,0.208-59.203,26.822-59.203,59.585    c0,32.892,26.694,59.585,59.587,59.585c15.437,0,29.508-5.883,40.095-15.524c0,0-0.001-0.001-0.004-0.003h0.013    c2.168-1.976,4.19-4.107,6.049-6.381h-12.207c-1.63-1.969-3.111-4.021-4.443-6.138h21.055c1.28-2.049,2.44-4.177,3.469-6.38    h-27.998c-0.955-2.046-1.783-4.138-2.491-6.261h32.982c1.988-5.939,3.066-12.294,3.066-18.898c0-4.38-0.476-8.648-1.374-12.759    h-36.424c0.452-2.117,1.021-4.207,1.7-6.261h32.994c-0.738-2.186-1.594-4.315-2.569-6.38h-27.89    c1.006-2.148,2.146-4.24,3.419-6.259h21.039c-1.4-2.23-2.948-4.362-4.625-6.381h-11.729c1.812-2.135,3.81-4.144,5.978-6.018    c-10.589-9.644-24.663-15.528-40.104-15.528C1111.704,0.016,1111.576,0.015,1111.449,0.016z"/>
	</g>
	<g id="g16480">
		<g id="g10289">
			<path id="path4157" d="M1133.258,74.772l0.795-5.394c-0.434,0-1.072,0.187-1.636,0.187c-2.208,0-2.451-1.175-2.311-2.043     l1.784-11.003h3.355l0.811-5.965h-3.164l0.644-3.71h-6.345c-0.139,0.14-3.744,20.863-3.744,23.387     c0,3.735,2.098,5.398,5.054,5.371C1130.819,75.584,1132.623,74.942,1133.258,74.772z"/>
			<path id="path4155" d="M1135.269,64.49c0,8.965,5.917,11.096,10.959,11.096c4.654,0,6.702-1.04,6.702-1.04l1.117-6.119     c0,0-3.539,1.56-6.737,1.56c-6.812,0-5.619-5.079-5.619-5.079h12.893c0,0,0.833-4.111,0.833-5.786     c0-4.18-2.081-9.273-9.047-9.273C1139.991,49.849,1135.269,56.722,1135.269,64.49z M1146.394,55.53     c3.581,0,2.919,4.022,2.919,4.348h-7.042C1142.271,59.463,1142.937,55.53,1146.394,55.53z"/>
			<path id="path4151" d="M1186.569,74.768l1.135-6.916c0,0-3.113,1.561-5.249,1.561c-4.501,0-6.306-3.437-6.306-7.128     c0-7.49,3.872-11.61,8.183-11.61c3.232,0,5.828,1.815,5.828,1.815l1.035-6.72c0,0-3.848-1.557-7.146-1.557     c-7.324,0-14.449,6.354-14.449,18.286c0,7.912,3.847,13.139,11.419,13.139C1183.159,75.639,1186.569,74.768,1186.569,74.768z"/>
			<path id="path4149" d="M1098.365,49.946c-4.351,0-7.685,1.398-7.685,1.398l-0.921,5.466c0,0,2.753-1.119,6.913-1.119     c2.362,0,4.091,0.266,4.091,2.186c0,1.166-0.211,1.597-0.211,1.597s-1.864-0.156-2.728-0.156c-5.486,0-11.251,2.342-11.251,9.401     c0,5.562,3.781,6.84,6.126,6.84c4.476,0,6.405-2.904,6.509-2.913l-0.211,2.424h5.588l2.492-17.473     C1107.078,50.185,1100.611,49.946,1098.365,49.946z M1099.724,64.172c0.121,1.067-0.669,6.07-4.489,6.07     c-1.97,0-2.482-1.505-2.482-2.396c0-1.734,0.943-3.819,5.593-3.819C1099.426,64.026,1099.542,64.142,1099.724,64.172z"/>
			<path id="path4145" d="M1113.015,75.43c1.429,0,9.598,0.364,9.598-8.066c0-7.881-7.562-6.324-7.562-9.489     c0-1.577,1.231-2.072,3.485-2.072c0.895,0,4.334,0.283,4.334,0.283l0.803-5.602c0,0.001-2.229-0.498-5.854-0.498     c-4.693,0-9.457,1.873-9.457,8.284c0,7.263,7.943,6.534,7.943,9.595c0,2.042-2.219,2.208-3.93,2.208     c-2.959,0-5.624-1.016-5.634-0.968l-0.846,5.545C1106.048,74.697,1107.694,75.43,1113.015,75.43z"/>
			<path id="path4139" d="M1239.12,44.92l-1.368,8.491c0,0-2.389-3.298-6.126-3.298c-5.813,0-10.659,7.009-10.659,15.061     c0,5.199,2.585,10.292,7.868,10.292c3.801,0,5.907-2.65,5.907-2.65l-0.279,2.264h6.171l4.846-30.17L1239.12,44.92z      M1236.174,61.475c0,3.352-1.66,7.827-5.1,7.827c-2.283,0-3.354-1.916-3.354-4.925c0-4.918,2.21-8.164,4.998-8.164     C1235.002,56.214,1236.174,57.783,1236.174,61.475z"/>
			<path id="path4133" d="M1064.014,75.105l3.862-22.777l0.566,22.777h4.371l8.154-22.777l-3.612,22.777h6.496l5-30.21h-10.043     l-6.255,18.536l-0.325-18.536h-9.258l-5.074,30.21H1064.014z"/>
			<path id="path4131" d="M1161.761,75.146c1.847-10.501,2.19-19.028,6.597-17.467c0.771-4.065,1.516-5.637,2.357-7.357     c0,0-0.396-0.083-1.225-0.083c-2.841,0-4.945,3.882-4.945,3.882l0.564-3.565h-5.905l-3.958,24.591H1161.761z"/>
			<g id="use8523" transform="translate(847.0062,0)">
				<path id="path4149_1_" d="M354.201,49.946c-4.351,0-7.686,1.398-7.686,1.398l-0.92,5.466c0,0,2.753-1.119,6.913-1.119      c2.363,0,4.09,0.266,4.09,2.186c0,1.166-0.21,1.597-0.21,1.597s-1.863-0.156-2.728-0.156c-5.487,0-11.25,2.342-11.25,9.401      c0,5.562,3.781,6.84,6.124,6.84c4.477,0,6.406-2.904,6.509-2.913l-0.209,2.424c0,0,5.585,0,5.587,0l2.49-17.473      C362.914,50.185,356.447,49.946,354.201,49.946z M355.563,64.172c0.121,1.067-0.67,6.07-4.49,6.07      c-1.972,0-2.482-1.505-2.482-2.396c0-1.734,0.944-3.819,5.593-3.819C355.264,64.026,355.378,64.142,355.563,64.172z"/>
			</g>
			<g id="use8525" transform="translate(442.2857,0)">
				<path id="path4131_1_" d="M772.74,75.146c1.847-10.501,2.189-19.028,6.595-17.467c0.772-4.065,1.519-5.637,2.358-7.357      c0,0-0.395-0.083-1.223-0.083c-2.841,0-4.946,3.882-4.946,3.882l0.566-3.565h-5.908l-3.957,24.591H772.74z"/>
			</g>
		</g>
	</g>
</g>
<path fill="none" stroke="#000000" stroke-miterlimit="10" d="M1142.528,27.343"/>
<path fill="none" stroke="#000000" stroke-miterlimit="10" d="M1146.774,22.594"/>
<path fill="none" stroke="#000000" stroke-miterlimit="10" d="M1159.971,27.111"/>
<path fill="none" stroke="#000000" stroke-miterlimit="10" d="M1142.528,27.343"/>
<path fill="none" stroke="#000000" stroke-miterlimit="10" d="M1157.428,22.131"/>
<path fill="none" stroke="#000000" stroke-miterlimit="10" d="M1159.971,27.111"/>
<path fill="none" stroke="#000000" stroke-miterlimit="10" d="M1157.428,22.131"/>
<path fill="none" stroke="#000000" stroke-miterlimit="10" d="M1146.774,22.594"/>
<path d="M1162.313,27.942c-1.06,0-19.771,0-21.039,0c-1.268,0,3.765-6.381,4.685-6.381s10.961,0,11.729,0  C1158.458,21.561,1163.373,27.942,1162.313,27.942z"/>
<path d="M1168.314,40.552c-1.583,0-31.1,0-32.994,0c-1.893,0,1.162-6.351,2.535-6.351c1.375,0,26.74,0,27.89,0  S1169.897,40.552,1168.314,40.552z"/>
<path d="M1162.368,90.894c-1.06,0-19.771,0-21.038,0c-1.268,0,3.763,5.938,4.684,5.938s10.961,0,11.73,0  S1163.428,90.894,1162.368,90.894z"/>
<path d="M1168.369,79.16c-1.584,0-31.101,0-32.995,0c-1.893,0,1.163,5.91,2.536,5.91c1.376,0,26.741,0,27.891,0  C1166.949,85.07,1169.952,79.16,1168.369,79.16z"/>
</svg>
