<?xml version="1.0" encoding="utf-8"?>
<!-- Generator: Adobe Illustrator 16.0.0, SVG Export Plug-In . SVG Version: 6.00 Build 0)  -->
<!DOCTYPE svg PUBLIC "-//W3C//DTD SVG 1.1//EN" "http://www.w3.org/Graphics/SVG/1.1/DTD/svg11.dtd">
<svg xmlns="http://www.w3.org/2000/svg" xmlns:xlink="http://www.w3.org/1999/xlink" version="1.1" id="Ebene_1" x="0px" y="0px" width="232.415px" height="41.058px" viewBox="0 -1.137 232.415 41.058" xml:space="preserve">
<path fill="#FFFFFF" d="M56.665,16.206c-0.768,1.04-2.053,2.848-2.835,3.904c-0.397,0.537-1.114,1.512,1.263,1.512  c2.515,0,12.515,0,12.515,0s2.017-2.744,3.708-5.039c2.3-3.122,0.199-9.618-8.024-9.618c-7.36,0-32.384,0-32.384,0l-5.615,7.629  c0,0,29.109,0,30.603,0C57.441,14.594,57.42,15.182,56.665,16.206z M47.471,23.504c-2.377,0-1.66-0.979-1.263-1.514  c0.782-1.058,2.088-2.847,2.856-3.887c0.756-1.024,0.776-1.612-0.771-1.612c-1.493,0-13.996,0-13.996,0L23.02,31.819  c0,0,20.141,0,27.501,0c9.083,0,14.14-6.178,15.699-8.314C66.22,23.504,49.985,23.504,47.471,23.504z M65.361,31.819h16.133  l6.116-8.316l-16.131,0.002C71.474,23.504,65.361,31.819,65.361,31.819z M106.985,6.965l-6.188,8.405h-7.198l6.185-8.405H83.655  l-10.79,14.657h39.46l10.787-14.657H106.985z M88.694,31.819h16.127l6.119-8.314H94.813C94.808,23.504,88.694,31.819,88.694,31.819z   M0,26.784v1.766h22.468l1.298-1.766H0z M26.181,23.504H0v1.764h24.88L26.181,23.504z M0,31.819h20.061l1.292-1.756H0V31.819z   M152.071,28.549h23.677v-1.766h-22.376L152.071,28.549z M149.667,31.819h26.081v-1.756h-24.79L149.667,31.819z M155.783,23.504  l-1.298,1.766h21.263v-1.766H155.783z M134.659,21.622l10.789-14.657h-17.081c-0.007,0-10.798,14.657-10.798,14.657H134.659z   M116.187,23.504c0,0-1.179,1.611-1.752,2.387c-2.023,2.736-0.232,5.928,6.377,5.928c7.635,0,25.9,0,25.9,0l6.119-8.314H116.187  L116.187,23.504z"/>
<path fill="#222222" d="M226.667,37.023c-0.799,0-1.447,0.653-1.447,1.451s0.648,1.446,1.447,1.446c0.802,0,1.449-0.648,1.449-1.446  S227.469,37.023,226.667,37.023z"/>
<path id="path4" fill="#FFFFFF" d="M215.165,39.919c-1.068-0.464-9.788-4.275-12.608-6.587  c-3.036-2.489-4.642-6.062-4.642-10.335V2.691c4.793-2.54,10.597-3.828,17.25-3.828c6.655,0,12.457,1.288,17.25,3.828v20.307  c0,4.272-1.604,7.847-4.639,10.335C225.001,35.608,216.178,39.479,215.165,39.919L215.165,39.919z"/>
<path fill="#FFFFFF" d="M229.03,11.462l-11.306-1.267c-2.503,0-5.013-0.168-7.518-0.071c-2.202,0.085-4.403,0.573-6.591,0.84  c-0.697,0.085-1.93,0.238-2.455,0.808c-0.314,0.342-0.393,1.022-0.482,1.468c-0.203,1.004-0.229,2.114-0.306,3.127  c-0.12,1.602-0.247,3.21-0.316,4.813c-0.052,1.202-0.192,2.608-0.027,3.811c0.06,0.432-0.035,0.299,0.343,0.674  c0.936,0.925,2.055,1.632,3.084,2.438c0.169,0.132,0.312,0.248,0.459,0.402c1.355,1.42,2.635,2.896,4.229,4.062  c1.044,0.766,2.73,0.541,3.979,0.609c0.965,0.053,1.844,0.057,2.787,0.247c1.081,0.219,2.273,0.32,3.369,0.177  c1.275-0.166,2.459-0.853,3.645-1.295c2.15-0.801,3.715-2.539,5.322-4.096c0.992-0.961,1.874-1.911,2.468-3.191  c0.587-1.266,0.677-2.827,0.757-4.206c0.083-1.441-0.016-2.914-0.191-4.341c-0.127-1.029-0.123-2.06-0.15-3.094  C230.104,12.51,229.808,11.889,229.03,11.462z"/>
<path id="path6" fill="#222222" d="M221.847,15.963c-0.013-2.425,2.052-3.854,4.026-3.91  c1.647-0.051,2.766,0.568,3.294,0.975v2.609c-0.625-0.642-1.641-1.224-2.689-1.233c-0.85-0.008-1.736,0.367-1.765,1.434  c-0.029,1.092,0.854,1.524,1.974,2.181c2.508,1.474,2.992,2.798,2.936,4.549c-0.058,1.919-1.381,4.015-4.347,4.015  c-1.187,0-2.358-0.371-3.3-0.932v-2.763c0.768,0.682,1.912,1.214,2.869,1.221c1.102,0.005,1.826-0.626,1.8-1.673  c-0.021-0.942-0.556-1.453-1.874-2.229C222.296,18.754,221.851,17.56,221.847,15.963L221.847,15.963z M214.571,14.686  c0.244-0.121,0.658-0.217,1.062-0.217c1.744,0,2.465,1.391,2.465,4.753c0,3.28-0.825,4.865-2.553,4.865  c-0.405,0-0.76-0.1-0.975-0.181V14.686z M214.571,32.678h-3.002V13.121c1.089-0.703,2.409-1.067,4.045-1.067  c3.582,0,5.552,2.718,5.552,7.093c0,4.384-1.911,7.384-5.243,7.384c-0.616,0-1.051-0.081-1.352-0.171V32.678z M201.032,21.79v-9.433  h3v9.567c0,0.851,0.205,2.11,1.582,2.11c0.609,0,1.092-0.143,1.419-0.366V12.357h2.996v13.019c-1.146,0.78-2.685,1.206-4.522,1.206  C202.538,26.582,201.032,24.97,201.032,21.79z M199.501,22.999c0,3.784,1.398,6.943,4.057,9.109  c2.348,1.913,9.569,5.182,11.607,6.08c2.01-0.886,9.217-4.113,11.604-6.08c2.676-2.203,4.061-5.29,4.061-9.109V3.119  c-10.042-0.935-21.926-0.361-31.328,8.264V22.999L199.501,22.999L199.501,22.999z"/>
<path fill="#FFFFFF" d="M226.663,37.189c-0.701,0-1.271,0.578-1.271,1.281c0,0.705,0.569,1.276,1.271,1.276  c0.704,0,1.273-0.571,1.273-1.276C227.937,37.767,227.367,37.189,226.663,37.189z"/>
<path fill="#222222" d="M227.862,38.474c0,0.656-0.533,1.19-1.195,1.19c-0.656,0-1.191-0.534-1.191-1.19  c0-0.657,0.535-1.195,1.191-1.195C227.329,37.279,227.862,37.817,227.862,38.474z"/>
<path fill="#FFFFFF" d="M226.154,37.588v1.762h0.317v-0.735h0.045c0.024,0.036,0.479,0.735,0.479,0.735h0.385  c0,0-0.482-0.706-0.53-0.775c0.233-0.056,0.391-0.225,0.391-0.469c0-0.25-0.154-0.518-0.586-0.518H226.154L226.154,37.588z"/>
<path fill="#231F20" d="M226.618,37.845c0.27,0,0.305,0.133,0.305,0.248c0,0.166-0.07,0.276-0.411,0.276h-0.04v-0.524H226.618  L226.618,37.845z"/>
<line fill="none" x1="224.633" y1="37.173" x2="224.64" y2="37.173"/>
</svg>
